<svg width="87" height="62" viewBox="0 0 87 62" fill="none" xmlns="http://www.w3.org/2000/svg">
<path d="M0.75971 12.0905C1.15907 6.02002 6.10223 1.2626 12.2559 0.961587C21.1669 0.525702 33.9033 0 43.4997 0C53.0962 0 65.8325 0.525702 74.7435 0.961587C80.8972 1.2626 85.8404 6.02003 86.2397 12.0905C86.6224 17.9065 86.9995 25.0628 86.9995 30.6779C86.9995 36.293 86.6224 43.4494 86.2397 49.2654C85.8404 55.3358 80.8972 60.0933 74.7435 60.3943C65.8325 60.8301 53.0962 61.3559 43.4997 61.3559C33.9033 61.3559 21.1669 60.8301 12.2559 60.3943C6.10223 60.0933 1.15907 55.3358 0.75971 49.2653C0.377093 43.4494 0 36.293 0 30.6779C0 25.0628 0.377093 17.9065 0.75971 12.0905Z" fill="#141105"/>
<path fill-rule="evenodd" clip-rule="evenodd" d="M12.2559 0.961587C6.10223 1.2626 1.15907 6.02002 0.75971 12.0905C0.377093 17.9065 0 25.0628 0 30.6779C0 36.293 0.377093 43.4494 0.75971 49.2653C1.15907 55.3358 6.10223 60.0933 12.2559 60.3943C21.1669 60.8301 33.9033 61.3559 43.4997 61.3559C53.0962 61.3559 65.8325 60.8301 74.7435 60.3943C80.8972 60.0933 85.8404 55.3358 86.2397 49.2654C86.6224 43.4494 86.9995 36.293 86.9995 30.6779C86.9995 25.0628 86.6224 17.9065 86.2397 12.0905C85.8404 6.02003 80.8972 1.2626 74.7435 0.961587C65.8325 0.525702 53.0962 0 43.4997 0C33.9033 0 21.1669 0.525702 12.2559 0.961587ZM59.086 30.6871L34.2305 42.9575V18.4167L59.086 30.6871Z" fill="url(#paint0_linear_135_703)"/>
<defs>
<linearGradient id="paint0_linear_135_703" x1="0" y1="30.6779" x2="86.9995" y2="30.6779" gradientUnits="userSpaceOnUse">
<stop stop-color="#F2BE8C"/>
<stop offset="1" stop-color="#C5874E"/>
</linearGradient>
</defs>
</svg>
