<svg width="40" height="40" viewBox="0 0 40 40" fill="none" xmlns="http://www.w3.org/2000/svg">
<rect width="40" height="40" fill="#EFBA88"/>
<path d="M27.9965 17.8767C28.0302 16.8589 27.817 15.8487 27.3765 14.9399C27.0776 14.567 26.6629 14.3153 26.2045 14.2288C24.3085 14.0492 22.4048 13.9756 20.5013 14.0083C18.6047 13.9741 16.7078 14.0454 14.8185 14.2216C14.445 14.2926 14.0993 14.4754 13.8237 14.7479C13.2104 15.3381 13.1423 16.3479 13.0741 17.2012C12.9753 18.7355 12.9753 20.2749 13.0741 21.8092C13.0939 22.2895 13.1624 22.7662 13.2786 23.2314C13.3607 23.5906 13.5269 23.9228 13.7623 24.1985C14.0399 24.4854 14.3936 24.6787 14.7776 24.7532C16.2466 24.9424 17.7268 25.0208 19.2066 24.9878C21.5915 25.0234 23.6834 24.9878 26.1568 24.7887C26.5503 24.7188 26.9139 24.5253 27.1993 24.2341C27.3901 24.0349 27.5326 23.7911 27.615 23.523C27.8587 22.7426 27.9783 21.9259 27.9693 21.1052C27.9965 20.707 27.9965 18.3034 27.9965 17.8767ZM18.9613 21.5318V17.1301L22.9952 19.3416C21.8641 19.9959 20.3718 20.7354 18.9613 21.5318Z" fill="black"/>
</svg>
