<svg width="48" height="48" viewBox="0 0 48 48" fill="none" xmlns="http://www.w3.org/2000/svg">
<g filter="url(#filter0_b_135_807)">
<rect width="48" height="48" fill="#F2BE8C" fill-opacity="0.8"/>
<path d="M25.744 14.6336L33.272 19.5268C33.538 19.6997 33.671 19.7861 33.7674 19.9015C33.8527 20.0035 33.9167 20.1216 33.9558 20.2488C34 20.3924 34 20.551 34 20.8683V28.2C34 29.8802 34 30.7202 33.673 31.362C33.3854 31.9265 32.9265 32.3854 32.362 32.673C31.7202 33 30.8802 33 29.2 33H18.8C17.1198 33 16.2798 33 15.638 32.673C15.0735 32.3854 14.6146 31.9265 14.327 31.362C14 30.7202 14 29.8802 14 28.2V20.8683C14 20.551 14 20.3924 14.0442 20.2488C14.0833 20.1216 14.1473 20.0035 14.2326 19.9015C14.329 19.7861 14.462 19.6997 14.728 19.5268L22.256 14.6336M25.744 14.6336C25.1127 14.2233 24.7971 14.0181 24.457 13.9383C24.1564 13.8677 23.8436 13.8677 23.543 13.9383C23.2029 14.0181 22.8873 14.2233 22.256 14.6336M25.744 14.6336L31.9361 18.6585C32.624 19.1056 32.9679 19.3291 33.087 19.6126C33.1911 19.8604 33.1911 20.1396 33.087 20.3874C32.9679 20.6709 32.624 20.8944 31.9361 21.3415L25.744 25.3664C25.1127 25.7767 24.7971 25.9819 24.457 26.0617C24.1564 26.1323 23.8436 26.1323 23.543 26.0617C23.2029 25.9819 22.8873 25.7767 22.256 25.3664L16.0639 21.3415C15.376 20.8944 15.0321 20.6709 14.913 20.3874C14.8089 20.1396 14.8089 19.8604 14.913 19.6126C15.0321 19.3291 15.376 19.1056 16.0639 18.6585L22.256 14.6336M33.5 31L26.8572 25M21.1428 25L14.5 31" stroke="black" stroke-width="2" stroke-linecap="round" stroke-linejoin="round"/>
</g>
<defs>
<filter id="filter0_b_135_807" x="-12" y="-12" width="72" height="72" filterUnits="userSpaceOnUse" color-interpolation-filters="sRGB">
<feFlood flood-opacity="0" result="BackgroundImageFix"/>
<feGaussianBlur in="BackgroundImageFix" stdDeviation="6"/>
<feComposite in2="SourceAlpha" operator="in" result="effect1_backgroundBlur_135_807"/>
<feBlend mode="normal" in="SourceGraphic" in2="effect1_backgroundBlur_135_807" result="shape"/>
</filter>
</defs>
</svg>
