<svg width="40" height="40" viewBox="0 0 40 40" fill="none" xmlns="http://www.w3.org/2000/svg">
<rect width="40" height="40" fill="#EFBA88"/>
<path d="M26.6664 25.8333H23.9055V21.5026C23.9055 20.4698 23.8872 19.1409 22.4695 19.1409C21.0317 19.1409 20.8114 20.2657 20.8114 21.4281V25.8333H18.0514V16.9273H20.7021V18.144H20.7388C21.2796 17.2188 22.2841 16.6661 23.3537 16.7056C26.1522 16.7056 26.6673 18.5496 26.6673 20.9471L26.6664 25.8333ZM14.9362 15.7096C14.0511 15.7096 13.334 14.9914 13.334 14.1048C13.334 13.2183 14.0511 12.5 14.9362 12.5C15.8212 12.5 16.5383 13.2183 16.5383 14.1048C16.5383 14.9914 15.8212 15.7096 14.9362 15.7096ZM16.3161 25.8333H13.5525V16.9273H16.3161V25.8333Z" fill="black"/>
</svg>
