<svg width="28" height="28" viewBox="0 0 28 28" fill="none" xmlns="http://www.w3.org/2000/svg">
<path d="M6.66601 15.3332L7.71196 17.4251C8.06595 18.133 8.24294 18.487 8.47939 18.7938C8.6892 19.066 8.93322 19.31 9.20542 19.5198C9.51217 19.7562 9.86615 19.9332 10.5741 20.2872L12.666 21.3332L10.5741 22.3791C9.86615 22.7331 9.51217 22.9101 9.20542 23.1465C8.93322 23.3564 8.6892 23.6004 8.47939 23.8726C8.24294 24.1793 8.06595 24.5333 7.71196 25.2413L6.66602 27.3332L5.62007 25.2413C5.26609 24.5333 5.08909 24.1793 4.85264 23.8726C4.64283 23.6004 4.39881 23.3564 4.12661 23.1465C3.81986 22.9101 3.46588 22.7331 2.7579 22.3791L0.666016 21.3332L2.7579 20.2872C3.46588 19.9332 3.81986 19.7562 4.12661 19.5198C4.39881 19.31 4.64283 19.066 4.85264 18.7938C5.08909 18.487 5.26609 18.133 5.62007 17.4251L6.66601 15.3332Z" fill="#F1BD8B"/>
<path d="M17.9993 0.666504L19.5708 4.7524C19.9469 5.73003 20.1349 6.21885 20.4272 6.63003C20.6864 6.99444 21.0047 7.31283 21.3692 7.57195C21.7803 7.86432 22.2691 8.05233 23.2468 8.42834L27.3327 9.99984L23.2468 11.5713C22.2692 11.9473 21.7803 12.1354 21.3692 12.4277C21.0047 12.6868 20.6864 13.0052 20.4272 13.3696C20.1349 13.7808 19.9469 14.2696 19.5708 15.2473L17.9993 19.3332L16.4279 15.2473C16.0518 14.2696 15.8638 13.7808 15.5715 13.3696C15.3123 13.0052 14.994 12.6868 14.6295 12.4277C14.2184 12.1354 13.7295 11.9473 12.7519 11.5713L8.66602 9.99984L12.7519 8.42834C13.7295 8.05232 14.2184 7.86432 14.6295 7.57195C14.994 7.31283 15.3123 6.99444 15.5715 6.63003C15.8638 6.21885 16.0518 5.73003 16.4279 4.75239L17.9993 0.666504Z" fill="#F1BD8B"/>
</svg>
