<svg width="864" height="344" viewBox="0 0 864 344" fill="none" xmlns="http://www.w3.org/2000/svg">
<g filter="url(#filter0_ddii_135_366)">
<path d="M623.29 190.761C622.452 190.761 621.614 190.917 620.824 191.229L623.613 198.405C623.505 198.441 623.398 198.465 623.278 198.465V190.761H623.29ZM453.038 190.761C451.122 190.761 449.29 191.577 448.009 193.005L453.72 198.165C453.553 198.357 453.301 198.465 453.05 198.465V190.761H453.038ZM578.751 207.644C580.224 207.068 581.84 208.076 581.984 209.66L574.322 210.32C574.633 213.859 578.237 216.115 581.541 214.819L578.751 207.644ZM569.053 60.0428C568.503 53.6352 559.188 53.5272 558.482 59.9108L566.12 60.7627C566.06 61.3147 565.761 61.9146 565.222 62.3586C564.731 62.7546 564.181 62.8865 563.726 62.8865C563.271 62.8865 562.732 62.7306 562.241 62.3226C561.702 61.8666 561.427 61.2547 561.379 60.7147L569.053 60.0428ZM531.974 274.947C533.387 280.719 541.756 280.179 542.414 274.263L534.776 273.411C535.075 270.771 538.81 270.519 539.445 273.111L531.974 274.947ZM520.253 194.817C519.666 192.441 517.535 190.761 515.092 190.761V198.465C514.003 198.465 513.045 197.721 512.782 196.653L520.253 194.817ZM406.644 196.953C406.284 197.865 405.41 198.465 404.429 198.465V190.761C402.25 190.761 400.286 192.105 399.484 194.133L406.644 196.953ZM390.708 216.523C391.51 214.471 394.419 214.519 395.162 216.595L387.918 219.187C389.57 223.819 396.072 223.927 397.868 219.343L390.708 216.523ZM387.212 194.289C386.457 192.165 384.458 190.761 382.207 190.761V198.465C381.201 198.465 380.304 197.829 379.968 196.881L387.212 194.289ZM432.241 213.475C434.372 215.707 437.952 215.659 440.023 213.356L434.312 208.196C435.234 207.164 436.839 207.14 437.797 208.148L432.241 213.475ZM422.747 192.393C421.741 191.349 420.364 190.749 418.916 190.749V198.453C418.269 198.453 417.646 198.189 417.203 197.721L422.747 192.393ZM558.482 59.9108L534.764 273.423L542.402 274.275L566.12 60.7627L558.482 59.9108ZM447.997 192.993L434.312 208.184L440.023 213.344L453.708 198.153L447.997 192.993ZM515.092 190.761H453.038V198.465H515.092V190.761ZM418.904 190.761H404.429V198.465H418.904V190.761ZM437.797 208.136L422.747 192.393L417.191 197.721L432.241 213.464L437.797 208.136ZM382.219 190.761H46.4624V198.465H382.207V190.761H382.219ZM395.162 216.595L387.212 194.289L379.968 196.881L387.918 219.187L395.162 216.595ZM399.484 194.133L390.708 216.523L397.868 219.343L406.644 196.953L399.484 194.133ZM539.433 273.111L520.253 194.805L512.782 196.641L531.962 274.947L539.433 273.111ZM581.984 209.66L569.053 60.0428L561.391 60.7027L574.322 210.32L581.984 209.66ZM620.824 191.217L578.751 207.644L581.541 214.819L623.613 198.393L620.824 191.217ZM817.496 190.761H623.29V198.465H817.496V190.761ZM46.4624 190.761C44.3432 190.761 42.6191 192.489 42.6191 194.613C42.6191 196.737 44.3432 198.465 46.4624 198.465V190.761ZM817.496 198.465C819.615 198.465 821.339 196.737 821.339 194.613C821.339 192.489 819.615 190.761 817.496 190.761V198.465Z" fill="#FF0000"/>
</g>
<g filter="url(#filter1_ddii_135_366)">
<path d="M51.8218 25.2736H136.236L136.324 48.1026H74.6507V80.2223H128.272L147.296 99.2465V138.976L128.272 158H51.8218V25.2736ZM74.6507 135.171H116.769L124.467 127.473V110.749L116.769 103.051H74.6507V135.171ZM201.006 138.976V102.963L189.68 103.051V158H166.851V25.2736H189.68V80.1339H201.006V44.2977L220.03 25.2736H277.457L296.481 44.2977V138.976L277.457 158H220.03L201.006 138.976ZM223.835 55.8007V127.473L231.533 135.171H265.954L273.652 127.473V55.8007L265.954 48.1026H231.533L223.835 55.8007ZM316.213 158V25.2736H392.663L411.687 44.2977V84.0272L392.663 103.051H339.042V158H316.213ZM339.042 48.1026V80.2223H381.16L388.858 72.5242V55.8007L381.16 48.1026H339.042ZM431.242 138.976V44.2977L450.266 25.2736H507.693L526.717 44.2977V138.976L507.693 158H450.266L431.242 138.976ZM454.071 55.8007V127.473L461.769 135.171H496.19L503.888 127.473V55.8007L496.19 48.1026H461.769L454.071 55.8007Z" fill="#FAFAFA"/>
<path d="M600.159 25.2736H632.455V158H609.626V48.1026H600.159V25.2736ZM653.869 138.976V116.855H676.698V127.473L684.484 135.171H718.816L726.603 127.384L726.514 110.661L718.905 103.051H686.165V80.2223H718.816L726.603 72.5242L726.514 55.7122L718.905 48.1026H684.396L676.698 55.7122V66.4188H653.869V44.2977L672.893 25.2736H730.319L749.343 44.2977V79.7799L737.486 91.6368L749.343 103.494V138.976L730.319 158H672.893L653.869 138.976Z" fill="#FF0000"/>
</g>
<defs>
<filter id="filter0_ddii_135_366" x="0.459141" y="35.1797" width="863.041" height="308.3" filterUnits="userSpaceOnUse" color-interpolation-filters="sRGB">
<feFlood flood-opacity="0" result="BackgroundImageFix"/>
<feColorMatrix in="SourceAlpha" type="matrix" values="0 0 0 0 0 0 0 0 0 0 0 0 0 0 0 0 0 0 127 0" result="hardAlpha"/>
<feOffset dy="22.32"/>
<feGaussianBlur stdDeviation="21.08"/>
<feComposite in2="hardAlpha" operator="out"/>
<feColorMatrix type="matrix" values="0 0 0 0 0 0 0 0 0 0 0 0 0 0 0 0 0 0 1 0"/>
<feBlend mode="normal" in2="BackgroundImageFix" result="effect1_dropShadow_135_366"/>
<feColorMatrix in="SourceAlpha" type="matrix" values="0 0 0 0 0 0 0 0 0 0 0 0 0 0 0 0 0 0 127 0" result="hardAlpha"/>
<feOffset dy="4"/>
<feGaussianBlur stdDeviation="12"/>
<feComposite in2="hardAlpha" operator="out"/>
<feColorMatrix type="matrix" values="0 0 0 0 1 0 0 0 0 0.0823529 0 0 0 0 0.14902 0 0 0 0.75 0"/>
<feBlend mode="normal" in2="effect1_dropShadow_135_366" result="effect2_dropShadow_135_366"/>
<feBlend mode="normal" in="SourceGraphic" in2="effect2_dropShadow_135_366" result="shape"/>
<feColorMatrix in="SourceAlpha" type="matrix" values="0 0 0 0 0 0 0 0 0 0 0 0 0 0 0 0 0 0 127 0" result="hardAlpha"/>
<feOffset dx="-2" dy="-2"/>
<feGaussianBlur stdDeviation="1.6"/>
<feComposite in2="hardAlpha" operator="arithmetic" k2="-1" k3="1"/>
<feColorMatrix type="matrix" values="0 0 0 0 0 0 0 0 0 0 0 0 0 0 0 0 0 0 0.25 0"/>
<feBlend mode="normal" in2="shape" result="effect3_innerShadow_135_366"/>
<feColorMatrix in="SourceAlpha" type="matrix" values="0 0 0 0 0 0 0 0 0 0 0 0 0 0 0 0 0 0 127 0" result="hardAlpha"/>
<feOffset dx="1" dy="1"/>
<feGaussianBlur stdDeviation="1"/>
<feComposite in2="hardAlpha" operator="arithmetic" k2="-1" k3="1"/>
<feColorMatrix type="matrix" values="0 0 0 0 1 0 0 0 0 1 0 0 0 0 1 0 0 0 0.8 0"/>
<feBlend mode="normal" in2="effect3_innerShadow_135_366" result="effect4_innerShadow_135_366"/>
</filter>
<filter id="filter1_ddii_135_366" x="20.6623" y="5.27344" width="759.841" height="206.207" filterUnits="userSpaceOnUse" color-interpolation-filters="sRGB">
<feFlood flood-opacity="0" result="BackgroundImageFix"/>
<feColorMatrix in="SourceAlpha" type="matrix" values="0 0 0 0 0 0 0 0 0 0 0 0 0 0 0 0 0 0 127 0" result="hardAlpha"/>
<feOffset dy="22.32"/>
<feGaussianBlur stdDeviation="15.58"/>
<feComposite in2="hardAlpha" operator="out"/>
<feColorMatrix type="matrix" values="0 0 0 0 0 0 0 0 0 0 0 0 0 0 0 0 0 0 1 0"/>
<feBlend mode="normal" in2="BackgroundImageFix" result="effect1_dropShadow_135_366"/>
<feColorMatrix in="SourceAlpha" type="matrix" values="0 0 0 0 0 0 0 0 0 0 0 0 0 0 0 0 0 0 127 0" result="hardAlpha"/>
<feOffset dy="4"/>
<feGaussianBlur stdDeviation="12"/>
<feComposite in2="hardAlpha" operator="out"/>
<feColorMatrix type="matrix" values="0 0 0 0 1 0 0 0 0 0.0823529 0 0 0 0 0.14902 0 0 0 0.75 0"/>
<feBlend mode="normal" in2="effect1_dropShadow_135_366" result="effect2_dropShadow_135_366"/>
<feBlend mode="normal" in="SourceGraphic" in2="effect2_dropShadow_135_366" result="shape"/>
<feColorMatrix in="SourceAlpha" type="matrix" values="0 0 0 0 0 0 0 0 0 0 0 0 0 0 0 0 0 0 127 0" result="hardAlpha"/>
<feOffset dx="-6" dy="-6"/>
<feGaussianBlur stdDeviation="6.1"/>
<feComposite in2="hardAlpha" operator="arithmetic" k2="-1" k3="1"/>
<feColorMatrix type="matrix" values="0 0 0 0 0 0 0 0 0 0 0 0 0 0 0 0 0 0 0.66 0"/>
<feBlend mode="normal" in2="shape" result="effect3_innerShadow_135_366"/>
<feColorMatrix in="SourceAlpha" type="matrix" values="0 0 0 0 0 0 0 0 0 0 0 0 0 0 0 0 0 0 127 0" result="hardAlpha"/>
<feOffset dx="4" dy="4"/>
<feGaussianBlur stdDeviation="2"/>
<feComposite in2="hardAlpha" operator="arithmetic" k2="-1" k3="1"/>
<feColorMatrix type="matrix" values="0 0 0 0 1 0 0 0 0 1 0 0 0 0 1 0 0 0 0.8 0"/>
<feBlend mode="normal" in2="effect3_innerShadow_135_366" result="effect4_innerShadow_135_366"/>
</filter>
</defs>
</svg>
