<svg width="120" height="64" viewBox="0 0 120 64" fill="none" xmlns="http://www.w3.org/2000/svg">
<path d="M10.1957 32.0249V35.4445H15.895V32.0249H10.1957ZM10.1957 26.3256V29.7452H16.3516L18.1747 30.6583V36.8142L16.3516 37.7273H7.91602V24.0459H18.1747V26.3256H10.1957Z" fill="white"/>
<path d="M34.1252 35.4445V26.3256H28.4259V35.4445H34.1252ZM26.1462 29.7452V24.959L27.9693 24.0459H34.5786L36.4018 24.959V36.8111L34.5786 37.7242H27.9724L26.1493 36.8111V32.0249H23.8696V37.7242H21.5898V24.0459H23.8696V29.7452H26.1462Z" fill="white"/>
<path d="M42.1039 32.0249V37.7242H39.8242V24.0459H48.2567L50.0798 24.959V31.1149L48.2567 32.028H42.1039V32.0249ZM42.1039 26.3256V29.7452H47.8032V26.3256H42.1039Z" fill="white"/>
<path d="M61.4751 35.4445V26.3256H55.7758V35.4445H61.4751ZM53.4961 36.8111V24.959L55.3192 24.0459H61.9286L63.7517 24.959V36.8111L61.9286 37.7242H55.3192L53.4961 36.8111Z" fill="white"/>
<path d="M95.266 24.0459H92.9863V37.7211H95.266V24.0459Z" fill="white"/>
<path d="M108.948 32.0249V36.8111L107.122 37.7242H100.513L98.6895 36.8111V34.3046H100.969V35.4445H106.668V32.0249H102.109V29.7452H106.668V26.3256H100.969V27.4655H98.6895V24.959L100.513 24.0459H107.122L108.948 24.959V29.7452L107.808 30.885L108.948 32.0249Z" fill="white"/>
<path d="M94.4529 39.9731C94.2355 39.9731 94.0181 40.0135 93.8131 40.0942L94.5368 41.9516C94.5089 41.9609 94.4809 41.9671 94.4498 41.9671V39.9731H94.4529ZM50.2874 39.9731C49.7904 39.9731 49.3152 40.1843 48.9829 40.5539L50.4644 41.8894C50.4209 41.9391 50.3557 41.9671 50.2905 41.9671V39.9731H50.2874ZM82.8991 44.3431C83.2811 44.194 83.7004 44.4549 83.7377 44.8649L81.7499 45.0357C81.8307 45.9519 82.7655 46.5358 83.6227 46.2004L82.8991 44.3431ZM80.3833 6.13767C80.2404 4.47913 77.8241 4.45118 77.6408 6.10351L79.6224 6.32403C79.6068 6.4669 79.5292 6.62219 79.3894 6.73711C79.2621 6.8396 79.1192 6.87377 79.0012 6.87377C78.8832 6.87377 78.7434 6.83339 78.6161 6.72779C78.4763 6.60977 78.4049 6.45137 78.3924 6.3116L80.3833 6.13767ZM70.7644 61.764C71.1309 63.2579 73.3019 63.1181 73.4727 61.5869L71.4912 61.3664C71.5688 60.6831 72.5379 60.6179 72.7025 61.2888L70.7644 61.764ZM67.7238 41.0229C67.5716 40.4079 67.0187 39.9731 66.3851 39.9731V41.9671C66.1025 41.9671 65.854 41.7745 65.7857 41.4981L67.7238 41.0229ZM38.2521 41.5757C38.1589 41.8118 37.9322 41.9671 37.6775 41.9671V39.9731C37.1122 39.9731 36.6029 40.321 36.3948 40.8459L38.2521 41.5757ZM34.1182 46.6414C34.3263 46.1103 35.081 46.1227 35.2735 46.6601L33.3945 47.3309C33.8231 48.5298 35.5096 48.5578 35.9755 47.3713L34.1182 46.6414ZM33.2112 40.8862C33.0156 40.3365 32.4969 39.9731 31.913 39.9731V41.9671C31.6521 41.9671 31.4192 41.8025 31.3322 41.5571L33.2112 40.8862ZM44.8925 45.8525C45.4453 46.4302 46.374 46.4178 46.9113 45.8215L45.4298 44.486C45.6689 44.2188 46.0851 44.2126 46.3336 44.4735L44.8925 45.8525ZM42.4295 40.3955C42.1686 40.1253 41.8114 39.97 41.4356 39.97V41.964C41.2679 41.964 41.1064 41.8956 40.9915 41.7745L42.4295 40.3955ZM77.6408 6.10351L71.4881 61.3695L73.4696 61.59L79.6224 6.32403L77.6408 6.10351ZM48.9798 40.5508L45.4298 44.4828L46.9113 45.8184L50.4613 41.8863L48.9798 40.5508ZM66.3851 39.9731H50.2874V41.9671H66.3851V39.9731ZM41.4325 39.9731H37.6775V41.9671H41.4325V39.9731ZM46.3336 44.4704L42.4295 40.3955L40.9884 41.7745L44.8925 45.8494L46.3336 44.4704ZM31.9161 39.9731H7.86417V41.9671H31.913V39.9731H31.9161ZM35.2735 46.6601L33.2112 40.8862L31.3322 41.5571L33.3945 47.3309L35.2735 46.6601ZM36.3948 40.8459L34.1182 46.6414L35.9755 47.3713L38.2521 41.5757L36.3948 40.8459ZM72.6994 61.2888L67.7238 41.0198L65.7857 41.495L70.7613 61.764L72.6994 61.2888ZM83.7377 44.8649L80.3833 6.13767L78.3956 6.3085L81.7499 45.0357L83.7377 44.8649ZM93.8131 40.0911L82.8991 44.3431L83.6227 46.2004L94.5368 41.9484L93.8131 40.0911ZM108.805 39.9731H94.4529V41.9671H108.805V39.9731ZM7.86417 39.9731C7.31443 39.9731 6.86719 40.4204 6.86719 40.9701C6.86719 41.5198 7.31443 41.9671 7.86417 41.9671V39.9731ZM108.805 41.9671C109.355 41.9671 109.802 41.5198 109.802 40.9701C109.802 40.4204 109.355 39.9731 108.805 39.9731V41.9671Z" fill="#DE0000"/>
<path fill-rule="evenodd" clip-rule="evenodd" d="M89.5801 29.8787H92.2263L94.9626 25.2013L92.9903 24.0459L89.5801 29.8787Z" fill="white"/>
</svg>
